<svg id="Layer_1" data-name="Layer 1" xmlns="http://www.w3.org/2000/svg" viewBox="0 0 350 350"><defs><style>.cls-1{fill:#d8e7da;}.cls-2{fill:#a8d7cd;}.cls-3{fill:#00b28f;}.cls-4{fill:#fff;}.cls-5{fill:#09321d;}</style></defs><title>computer-vision-and-AI-on-EDGE</title><path class="cls-1" d="M342.91,175a167.63,167.63,0,0,1-66.22,133.64c-2,1.5-4,3-6,4.37a168,168,0,0,1-191.38,0q-3-2.11-6-4.37a168.24,168.24,0,0,1-59.17-182c.72-2.38,1.48-4.73,2.3-7.06A168,168,0,0,1,171.3,7.11h7.41A168,168,0,0,1,333.55,119.56c.81,2.33,1.57,4.67,2.29,7h0A168,168,0,0,1,342.91,175Z"/><path class="cls-2" d="M171.3,0V7.11A168,168,0,0,0,16.45,119.57l-6.74-2.19A175.06,175.06,0,0,1,171.3,0Z"/><path class="cls-3" d="M171.3,7.11V124.45a50.5,50.5,0,0,0-43.21,31.39L16.45,119.57A168,168,0,0,1,171.3,7.11Z"/><path class="cls-2" d="M340.29,117.37l-6.74,2.19A168,168,0,0,0,178.71,7.11V0A173.42,173.42,0,0,1,278.85,34.1,175.56,175.56,0,0,1,340.29,117.37Z"/><path class="cls-3" d="M333.55,119.56,221.92,155.84a50.52,50.52,0,0,0-43.21-31.39V7.11A168,168,0,0,1,333.55,119.56Z"/><path class="cls-2" d="M73.32,308.65l-4.15,5.71A175.21,175.21,0,0,1,7.42,124.44l6.73,2.19a168.24,168.24,0,0,0,59.17,182Z"/><path class="cls-3" d="M142.31,213.68l-69,95a168.24,168.24,0,0,1-59.17-182L125.8,162.89A50.76,50.76,0,0,0,142.31,213.68Z"/><path class="cls-2" d="M274.85,318.73a175,175,0,0,1-199.69,0L79.32,313a168,168,0,0,0,191.38,0Z"/><path class="cls-3" d="M270.7,313a168,168,0,0,1-191.38,0l69-95a50.7,50.7,0,0,0,53.39,0Z"/><path class="cls-2" d="M350,175a174.72,174.72,0,0,1-69.16,139.38l-4.15-5.72a168.24,168.24,0,0,0,59.15-182h0l6.74-2.19A175,175,0,0,1,350,175Z"/><path class="cls-3" d="M342.91,175a167.63,167.63,0,0,1-66.22,133.64l-69-95a50.68,50.68,0,0,0,16.51-50.79l111.64-36.28A167.94,167.94,0,0,1,342.91,175Z"/><path class="cls-1" d="M238.16,175a63.06,63.06,0,0,1-24.91,50.27c-.74.56-1.49,1.11-2.26,1.64a63.19,63.19,0,0,1-72,0c-.76-.53-1.52-1.08-2.25-1.64a63.24,63.24,0,0,1-22.26-68.46c.27-.9.56-1.78.87-2.66a63.18,63.18,0,0,1,58.24-42.3h2.79a63.19,63.19,0,0,1,58.23,42.3c.31.87.6,1.76.86,2.65h0A63,63,0,0,1,238.16,175Z"/><path class="cls-4" d="M43.16,226.24v3.36h3.26v-3.36h2V235h-2v-3.67H43.16V235h-2v-8.76Z"/><path class="cls-4" d="M53.68,235l-.12-.64h0a2.26,2.26,0,0,1-1.82.78,2,2,0,0,1-2.05-1.95c0-1.65,1.48-2.44,3.73-2.43v-.09c0-.34-.18-.82-1.16-.82a3.54,3.54,0,0,0-1.75.48l-.37-1.27a5.26,5.26,0,0,1,2.47-.56,2.48,2.48,0,0,1,2.8,2.74v2.21a9.33,9.33,0,0,0,.09,1.55Zm-.24-3c-1,0-1.84.23-1.84,1a.71.71,0,0,0,.78.75,1.08,1.08,0,0,0,1-.73,1.76,1.76,0,0,0,0-.33Z"/><path class="cls-4" d="M56.93,230.74c0-.94,0-1.55,0-2.1h1.7l.06,1.17h.06a1.86,1.86,0,0,1,1.71-1.31,1.8,1.8,0,0,1,.42,0v1.85a3.41,3.41,0,0,0-.53,0,1.28,1.28,0,0,0-1.36,1,3,3,0,0,0,0,.45V235h-2Z"/><path class="cls-4" d="M67.93,225.77v7.33c0,.72,0,1.47,0,1.9H66.22l-.09-.94h0a2.22,2.22,0,0,1-2,1.08c-1.51,0-2.72-1.28-2.72-3.26,0-2.15,1.33-3.38,2.85-3.38a1.92,1.92,0,0,1,1.67.71h0v-3.44Zm-2,5.56a2.16,2.16,0,0,0,0-.35,1.17,1.17,0,0,0-1.15-1c-.9,0-1.37.8-1.37,1.8s.54,1.76,1.35,1.76a1.16,1.16,0,0,0,1.15-.95,1.64,1.64,0,0,0,0-.45Z"/><path class="cls-4" d="M70.88,228.64l.5,2.6c.13.67.26,1.37.37,2.1h0c.13-.73.32-1.46.47-2.08l.68-2.62h1.56l.64,2.54c.16.71.33,1.43.46,2.16h0c.09-.73.22-1.45.36-2.17l.55-2.53h1.94L76.51,235H74.65l-.6-2.24c-.16-.62-.27-1.19-.4-2h0a14.87,14.87,0,0,1-.42,2L72.57,235H70.71l-1.85-6.36Z"/><path class="cls-4" d="M82.9,235l-.11-.64h0a2.29,2.29,0,0,1-1.82.78,2,2,0,0,1-2.06-1.95c0-1.65,1.48-2.44,3.73-2.43v-.09c0-.34-.18-.82-1.15-.82a3.61,3.61,0,0,0-1.76.48l-.36-1.27a5.19,5.19,0,0,1,2.47-.56,2.47,2.47,0,0,1,2.79,2.74v2.21a10.57,10.57,0,0,0,.09,1.55Zm-.23-3c-1,0-1.85.23-1.85,1a.71.71,0,0,0,.78.75,1.07,1.07,0,0,0,1-.73,1.19,1.19,0,0,0,0-.33Z"/><path class="cls-4" d="M86.15,230.74c0-.94,0-1.55-.05-2.1h1.7l.07,1.17h0a1.88,1.88,0,0,1,1.72-1.31,1.71,1.71,0,0,1,.41,0v1.85a3.41,3.41,0,0,0-.53,0,1.27,1.27,0,0,0-1.35,1,2.09,2.09,0,0,0,0,.45V235h-2Z"/><path class="cls-4" d="M92.51,232.45c.06.82.87,1.21,1.79,1.21a5.57,5.57,0,0,0,1.76-.26l.26,1.34a6.26,6.26,0,0,1-2.3.39,3.06,3.06,0,0,1-3.4-3.24,3.19,3.19,0,0,1,3.22-3.39c2,0,2.83,1.6,2.83,3.17a4.14,4.14,0,0,1-.07.78Zm2.33-1.35a1.15,1.15,0,0,0-1.12-1.29,1.3,1.3,0,0,0-1.22,1.29Z"/><path class="cls-4" d="M48.38,249l-.12-.64h0a2.29,2.29,0,0,1-1.82.78,2,2,0,0,1-2.06-1.95c0-1.65,1.48-2.44,3.73-2.43v-.09c0-.34-.18-.82-1.15-.82a3.61,3.61,0,0,0-1.76.48l-.36-1.27a5.19,5.19,0,0,1,2.47-.56,2.47,2.47,0,0,1,2.79,2.74v2.21a10.57,10.57,0,0,0,.09,1.55Zm-.23-3c-1,0-1.85.23-1.85,1a.71.71,0,0,0,.78.75,1.07,1.07,0,0,0,1-.73,1.75,1.75,0,0,0,0-.33Z"/><path class="cls-4" d="M57.7,242.64c0,.41-.05.94-.05,1.89v3.55a3.68,3.68,0,0,1-1,2.86,3.91,3.91,0,0,1-2.59.78,4.93,4.93,0,0,1-2.29-.5l.39-1.49a4,4,0,0,0,1.85.48,1.52,1.52,0,0,0,1.65-1.68v-.41h0A2,2,0,0,1,54,249c-1.57,0-2.69-1.28-2.69-3.11a3,3,0,0,1,2.88-3.34,1.94,1.94,0,0,1,1.75.9h0l.07-.76Zm-2,2.59a1.94,1.94,0,0,0,0-.36,1.09,1.09,0,0,0-1.07-.87c-.72,0-1.3.64-1.3,1.8,0,.95.47,1.69,1.3,1.69a1.07,1.07,0,0,0,1-.8,1.81,1.81,0,0,0,.06-.52Z"/><path class="cls-4" d="M59.24,244.67c0-.79,0-1.47-.06-2H60.9l.09.87h0a2.33,2.33,0,0,1,2-1c1.3,0,2.28.86,2.28,2.73V249h-2v-3.52c0-.82-.28-1.38-1-1.38a1.06,1.06,0,0,0-1,.74,1.4,1.4,0,0,0-.08.49V249h-2Z"/><path class="cls-4" d="M73.13,245.75a3.18,3.18,0,0,1-3.35,3.39,3.11,3.11,0,0,1-3.29-3.27,3.17,3.17,0,0,1,3.39-3.37A3.09,3.09,0,0,1,73.13,245.75Zm-4.6.06c0,1.1.46,1.92,1.3,1.92s1.26-.77,1.26-1.92c0-.94-.36-1.91-1.26-1.91S68.53,244.88,68.53,245.81Z"/><path class="cls-4" d="M74.34,247.27a3.91,3.91,0,0,0,1.71.48c.59,0,.84-.21.84-.53s-.19-.48-.94-.73c-1.31-.44-1.82-1.16-1.8-1.91,0-1.18,1-2.08,2.58-2.08a4.35,4.35,0,0,1,1.8.36l-.35,1.37a3.08,3.08,0,0,0-1.38-.36c-.48,0-.75.19-.75.51s.24.46,1,.73c1.21.42,1.72,1,1.73,2,0,1.18-.93,2-2.75,2a4.5,4.5,0,0,1-2.06-.44Z"/><path class="cls-4" d="M82.21,240.82v1.82h1.41v1.46H82.21v2.3c0,.77.18,1.12.78,1.12a3.9,3.9,0,0,0,.58-.05l0,1.49a3.73,3.73,0,0,1-1.29.17,2,2,0,0,1-1.48-.55,2.58,2.58,0,0,1-.55-1.88v-2.6h-.84v-1.46h.84v-1.38Z"/><path class="cls-4" d="M86.81,240.88a1,1,0,0,1-1.07,1,1,1,0,1,1,0-2A1,1,0,0,1,86.81,240.88Zm-2,8.12v-6.36h2V249Z"/><path class="cls-4" d="M93.1,248.84a4.71,4.71,0,0,1-1.77.29A3.08,3.08,0,0,1,88,245.88a3.31,3.31,0,0,1,3.64-3.38,4.41,4.41,0,0,1,1.5.25l-.31,1.47a2.55,2.55,0,0,0-1.1-.2,1.78,1.78,0,0,0,0,3.56,3.24,3.24,0,0,0,1.13-.19Z"/><path class="cls-4" d="M44.08,261.27a3.91,3.91,0,0,0,1.71.48c.6,0,.84-.21.84-.53s-.19-.48-.93-.73c-1.32-.44-1.82-1.16-1.81-1.91,0-1.18,1-2.08,2.59-2.08a4.33,4.33,0,0,1,1.79.36l-.35,1.37a3.08,3.08,0,0,0-1.38-.36c-.48,0-.75.19-.75.51s.24.46,1,.73c1.21.42,1.72,1,1.73,2,0,1.18-.93,2.05-2.75,2.05a4.53,4.53,0,0,1-2.06-.44Z"/><path class="cls-4" d="M56,259.75a3.18,3.18,0,0,1-3.35,3.39,3.11,3.11,0,0,1-3.29-3.27,3.17,3.17,0,0,1,3.39-3.37A3.09,3.09,0,0,1,56,259.75Zm-4.6.06c0,1.1.45,1.92,1.3,1.92S54,261,54,259.81c0-.94-.37-1.91-1.26-1.91S51.42,258.88,51.42,259.81Z"/><path class="cls-4" d="M57.24,253.77h2V263h-2Z"/><path class="cls-4" d="M66.81,261c0,.83,0,1.51,0,2H65.14l-.09-.9h0a2.25,2.25,0,0,1-2,1c-1.29,0-2.24-.8-2.24-2.77v-3.73h2v3.42c0,.93.3,1.48,1,1.48a1,1,0,0,0,1-.69.93.93,0,0,0,.07-.42v-3.79h2Z"/><path class="cls-4" d="M70.6,254.82v1.82H72v1.46H70.6v2.3c0,.77.19,1.12.78,1.12a3.93,3.93,0,0,0,.59,0V263a3.71,3.71,0,0,1-1.28.17,2.06,2.06,0,0,1-1.49-.55,2.62,2.62,0,0,1-.54-1.88v-2.6h-.85v-1.46h.85v-1.38Z"/><path class="cls-4" d="M75.21,254.88a1,1,0,0,1-1.07,1,1,1,0,1,1,0-2A1,1,0,0,1,75.21,254.88Zm-2,8.12v-6.36h2V263Z"/><path class="cls-4" d="M83,259.75a3.19,3.19,0,0,1-3.36,3.39,3.11,3.11,0,0,1-3.29-3.27,3.18,3.18,0,0,1,3.4-3.37A3.09,3.09,0,0,1,83,259.75Zm-4.61.06c0,1.1.46,1.92,1.3,1.92S81,261,81,259.81c0-.94-.37-1.91-1.27-1.91S78.4,258.88,78.4,259.81Z"/><path class="cls-4" d="M84.23,258.67c0-.79,0-1.47,0-2h1.71l.09.87h0a2.34,2.34,0,0,1,2-1c1.3,0,2.27.86,2.27,2.73V263h-2v-3.52c0-.82-.28-1.38-1-1.38a1.06,1.06,0,0,0-1,.74,1.4,1.4,0,0,0-.08.49V263h-2Z"/><path class="cls-4" d="M91.83,261.27a3.91,3.91,0,0,0,1.71.48c.59,0,.84-.21.84-.53s-.19-.48-.94-.73c-1.31-.44-1.81-1.16-1.8-1.91,0-1.18,1-2.08,2.58-2.08a4.35,4.35,0,0,1,1.8.36l-.35,1.37a3.08,3.08,0,0,0-1.38-.36c-.48,0-.75.19-.75.51s.24.46,1,.73c1.21.42,1.72,1,1.73,2,0,1.18-.93,2.05-2.75,2.05a4.5,4.5,0,0,1-2.06-.44Z"/><path class="cls-4" d="M56.51,90.6c0-1-.07-2.33-.07-3.6h0c-.28,1.12-.64,2.36-1,3.39l-1.06,3.42H52.81l-.94-3.39c-.28-1-.58-2.28-.79-3.42h0c0,1.18-.09,2.53-.15,3.63L50.74,94H48.91l.56-8.76h2.64L53,88.12c.28,1,.55,2.1.75,3.13h0c.24-1,.54-2.17.83-3.15l.93-2.91H58.1L58.58,94H56.64Z"/><path class="cls-4" d="M63.69,94l-.12-.63h0a2.3,2.3,0,0,1-1.82.78,2,2,0,0,1-2.05-1.95c0-1.65,1.48-2.45,3.73-2.43v-.1c0-.33-.18-.81-1.16-.81a3.54,3.54,0,0,0-1.75.48L60.11,88a5.39,5.39,0,0,1,2.47-.56,2.48,2.48,0,0,1,2.8,2.75v2.21A10.42,10.42,0,0,0,65.47,94Zm-.23-3c-1,0-1.85.23-1.85,1a.71.71,0,0,0,.78.76,1.09,1.09,0,0,0,1-.73,1.86,1.86,0,0,0,0-.34Z"/><path class="cls-4" d="M68.92,90.27h0c.14-.26.3-.52.46-.76l1.28-1.91h2.38l-2.27,2.57L73.39,94H71l-1.54-2.61-.5.62v2h-2V84.72h2Z"/><path class="cls-4" d="M75.32,91.41c.07.81.88,1.2,1.8,1.2a5.55,5.55,0,0,0,1.75-.26l.26,1.34a6.26,6.26,0,0,1-2.3.39,3,3,0,0,1-3.39-3.23,3.18,3.18,0,0,1,3.21-3.4c2.06,0,2.83,1.6,2.83,3.18a4.54,4.54,0,0,1-.06.78Zm2.33-1.36a1.14,1.14,0,0,0-1.12-1.28,1.29,1.29,0,0,0-1.22,1.28Z"/><path class="cls-4" d="M88.06,93.8a4.94,4.94,0,0,1-1.76.28,3.08,3.08,0,0,1-3.37-3.25,3.31,3.31,0,0,1,3.64-3.38,4.51,4.51,0,0,1,1.51.25l-.31,1.47a2.64,2.64,0,0,0-1.11-.2,1.79,1.79,0,0,0,0,3.57,3,3,0,0,0,1.13-.2Z"/><path class="cls-4" d="M95.29,90.7a3.19,3.19,0,0,1-3.35,3.4,3.12,3.12,0,0,1-3.29-3.28A3.18,3.18,0,0,1,92,87.45,3.09,3.09,0,0,1,95.29,90.7Zm-4.6.07c0,1.09.46,1.91,1.3,1.91s1.26-.77,1.26-1.91c0-1-.36-1.91-1.26-1.91S90.69,89.83,90.69,90.77Z"/><path class="cls-4" d="M96.51,89.62c0-.79,0-1.46-.05-2h1.67l.09.85h0a2.2,2.2,0,0,1,1.92-1,1.8,1.8,0,0,1,1.74,1.08h0a2.8,2.8,0,0,1,.82-.76,2.28,2.28,0,0,1,1.21-.32c1.22,0,2.14.86,2.14,2.76V94H104.2V90.5c0-.93-.3-1.46-.94-1.46a1,1,0,0,0-.91.69,1.7,1.7,0,0,0-.08.51V94h-1.92V90.39c0-.8-.29-1.35-.91-1.35a1,1,0,0,0-.92.71,1.25,1.25,0,0,0-.08.5V94H96.51Z"/><path class="cls-4" d="M107.69,89.73c0-.83,0-1.55,0-2.13h1.72l.09.88h0a2.41,2.41,0,0,1,2.11-1c1.4,0,2.64,1.21,2.64,3.24,0,2.31-1.47,3.41-2.88,3.41a2,2,0,0,1-1.65-.73h0v3.16h-2Zm2,1.49a1.76,1.76,0,0,0,0,.42,1.2,1.2,0,0,0,1.16.94c.85,0,1.36-.72,1.36-1.8S111.78,89,110.89,89a1.24,1.24,0,0,0-1.18,1,1.39,1.39,0,0,0,0,.35Z"/><path class="cls-4" d="M121.46,91.91c0,.83,0,1.51.05,2H119.8l-.09-.89h0a2.28,2.28,0,0,1-2,1c-1.29,0-2.24-.81-2.24-2.77V87.6h2V91c0,.92.3,1.48,1,1.48a1.08,1.08,0,0,0,1-.69,1.15,1.15,0,0,0,.06-.43V87.6h2Z"/><path class="cls-4" d="M125.26,85.78V87.6h1.41v1.45h-1.41v2.3c0,.77.18,1.12.78,1.12a2.9,2.9,0,0,0,.58,0l0,1.49a3.73,3.73,0,0,1-1.29.17,2.06,2.06,0,0,1-1.48-.54,2.62,2.62,0,0,1-.55-1.89v-2.6h-.84V87.6h.84V86.22Z"/><path class="cls-4" d="M129.27,91.41c.07.81.88,1.2,1.8,1.2a5.55,5.55,0,0,0,1.75-.26l.26,1.34a6.26,6.26,0,0,1-2.3.39,3,3,0,0,1-3.39-3.23,3.18,3.18,0,0,1,3.21-3.4c2.05,0,2.83,1.6,2.83,3.18a4.54,4.54,0,0,1-.06.78Zm2.33-1.36a1.14,1.14,0,0,0-1.12-1.28,1.29,1.29,0,0,0-1.22,1.28Z"/><path class="cls-4" d="M134.62,89.69c0-.94,0-1.55-.05-2.09h1.7l.06,1.17h0a1.88,1.88,0,0,1,1.72-1.32,1.84,1.84,0,0,1,.42,0v1.86a2.61,2.61,0,0,0-.54,0,1.27,1.27,0,0,0-1.35,1,2.87,2.87,0,0,0,0,.44V94h-2Z"/><path class="cls-4" d="M45.58,101.6l.86,3c.15.53.27,1,.36,1.54h0c.11-.52.21-1,.35-1.54l.82-3h2.08L47.73,108h-2l-2.31-6.35Z"/><path class="cls-4" d="M53,99.83a1,1,0,0,1-1.06,1,1,1,0,1,1,0-2A1,1,0,0,1,53,99.83ZM51,108V101.6h2V108Z"/><path class="cls-4" d="M54.55,106.22a3.78,3.78,0,0,0,1.7.49c.6,0,.85-.21.85-.54s-.2-.48-.94-.73c-1.31-.44-1.82-1.15-1.8-1.91,0-1.18,1-2.08,2.58-2.08a4.21,4.21,0,0,1,1.8.37l-.35,1.36a3.26,3.26,0,0,0-1.38-.36c-.48,0-.76.19-.76.52s.25.45,1,.73c1.21.41,1.72,1,1.73,2,0,1.18-.94,2-2.76,2a4.49,4.49,0,0,1-2-.44Z"/><path class="cls-4" d="M62.25,99.83a1,1,0,0,1-1.07,1,1,1,0,1,1,0-2A1,1,0,0,1,62.25,99.83Zm-2,8.12V101.6h2V108Z"/><path class="cls-4" d="M70.05,104.7a3.19,3.19,0,0,1-3.36,3.4,3.12,3.12,0,0,1-3.29-3.28,3.18,3.18,0,0,1,3.4-3.37A3.09,3.09,0,0,1,70.05,104.7Zm-4.6.07c0,1.09.45,1.91,1.3,1.91s1.26-.77,1.26-1.91c0-1-.37-1.91-1.26-1.91S65.45,103.83,65.45,104.77Z"/><path class="cls-4" d="M71.27,103.62c0-.79,0-1.46,0-2h1.71l.09.87h0a2.32,2.32,0,0,1,2-1c1.3,0,2.27.86,2.27,2.73V108h-2v-3.52c0-.82-.28-1.38-1-1.38a1.06,1.06,0,0,0-1,.74,1.46,1.46,0,0,0-.08.5V108h-2Z"/><path class="cls-4" d="M85.13,108l-.12-.63h0a2.32,2.32,0,0,1-1.82.78,2,2,0,0,1-2.05-1.95c0-1.65,1.48-2.45,3.73-2.43v-.1c0-.33-.18-.81-1.16-.81a3.54,3.54,0,0,0-1.75.48L81.55,102a5.32,5.32,0,0,1,2.47-.56,2.48,2.48,0,0,1,2.8,2.75v2.21a9.2,9.2,0,0,0,.09,1.54Zm-.24-3c-1,0-1.84.23-1.84,1a.71.71,0,0,0,.78.76,1.08,1.08,0,0,0,1-.73,1.27,1.27,0,0,0,0-.34Z"/><path class="cls-4" d="M92.61,108v-4.9h-2V108h-2v-4.9h-.83V101.6h.83v-.13a2.78,2.78,0,0,1,.73-2,2.6,2.6,0,0,1,2-.71,2.36,2.36,0,0,1,.84.16l-.27,1.46a1.45,1.45,0,0,0-.51-.1c-.59,0-.77.49-.77,1.12v.24h2v-.25a2.9,2.9,0,0,1,.81-2.13,2.54,2.54,0,0,1,1.76-.64,3.8,3.8,0,0,1,1,.13l-.08,1.52a2.31,2.31,0,0,0-.65-.09c-.65,0-.92.51-.92,1.13v.33h1.27v1.45H94.59V108Z"/><path class="cls-4" d="M103,104.7a3.19,3.19,0,0,1-3.36,3.4,3.12,3.12,0,0,1-3.29-3.28,3.18,3.18,0,0,1,3.4-3.37A3.09,3.09,0,0,1,103,104.7Zm-4.61.07c0,1.09.46,1.91,1.3,1.91s1.26-.77,1.26-1.91c0-1-.36-1.91-1.26-1.91S98.37,103.83,98.37,104.77Z"/><path class="cls-4" d="M104.2,103.69c0-.94,0-1.55,0-2.09h1.7l.06,1.17H106a1.86,1.86,0,0,1,1.71-1.32,1.8,1.8,0,0,1,.42,0v1.86a2.54,2.54,0,0,0-.54,0,1.27,1.27,0,0,0-1.35,1,2.87,2.87,0,0,0,0,.44V108h-2Z"/><path class="cls-4" d="M115.2,98.72v7.34c0,.71,0,1.46,0,1.89h-1.76l-.09-.93h0a2.24,2.24,0,0,1-2,1.08c-1.51,0-2.72-1.29-2.72-3.27,0-2.14,1.33-3.38,2.85-3.38a1.92,1.92,0,0,1,1.67.72h0V98.72Zm-2,5.57a2,2,0,0,0,0-.35,1.17,1.17,0,0,0-1.15-1c-.9,0-1.37.81-1.37,1.81s.53,1.75,1.35,1.75a1.16,1.16,0,0,0,1.15-1,1.59,1.59,0,0,0,0-.45Z"/><path class="cls-4" d="M120.4,108l-.12-.63h0a2.32,2.32,0,0,1-1.82.78,2,2,0,0,1-2-1.95c0-1.65,1.48-2.45,3.73-2.43v-.1c0-.33-.19-.81-1.16-.81a3.61,3.61,0,0,0-1.76.48l-.36-1.28a5.32,5.32,0,0,1,2.47-.56,2.47,2.47,0,0,1,2.79,2.75v2.21a9,9,0,0,0,.1,1.54Zm-.24-3c-1,0-1.84.23-1.84,1a.71.71,0,0,0,.77.76,1.08,1.08,0,0,0,1-.73,1.27,1.27,0,0,0,0-.34Z"/><path class="cls-4" d="M123.59,108c0-.41.06-1.18.06-1.89V98.72h2v3.63h0a2.22,2.22,0,0,1,1.92-.9c1.52,0,2.64,1.26,2.63,3.21,0,2.29-1.46,3.44-2.91,3.44a2.13,2.13,0,0,1-1.92-1h0l-.08.88Zm2-2.7a1.25,1.25,0,0,0,0,.35,1.21,1.21,0,0,0,1.16.94c.84,0,1.36-.65,1.36-1.8,0-1-.44-1.77-1.36-1.77a1.23,1.23,0,0,0-1.16,1,1.42,1.42,0,0,0,0,.36Z"/><path class="cls-4" d="M131.42,98.72h2V108h-2Z"/><path class="cls-4" d="M136.51,105.41c.07.81.88,1.2,1.8,1.2a5.51,5.51,0,0,0,1.75-.26l.26,1.34a6.26,6.26,0,0,1-2.3.39,3,3,0,0,1-3.39-3.23,3.18,3.18,0,0,1,3.21-3.4c2.06,0,2.83,1.6,2.83,3.18a4.54,4.54,0,0,1-.06.78Zm2.33-1.36a1.14,1.14,0,0,0-1.12-1.28,1.29,1.29,0,0,0-1.22,1.28Z"/><path class="cls-4" d="M62,122l-.12-.63h0a2.3,2.3,0,0,1-1.82.78,2,2,0,0,1-2-1.95c0-1.65,1.48-2.45,3.73-2.43v-.1c0-.33-.18-.81-1.16-.81a3.54,3.54,0,0,0-1.75.48L58.37,116a5.35,5.35,0,0,1,2.47-.56,2.48,2.48,0,0,1,2.8,2.75v2.21a9.2,9.2,0,0,0,.09,1.54Zm-.24-3c-1,0-1.84.23-1.84,1a.71.71,0,0,0,.78.76,1.08,1.08,0,0,0,1-.73,1.27,1.27,0,0,0,0-.34Z"/><path class="cls-4" d="M65.2,117.62c0-.79,0-1.46,0-2h1.71l.09.87h0a2.32,2.32,0,0,1,2-1c1.29,0,2.27.86,2.27,2.73V122h-2v-3.52c0-.82-.28-1.38-1-1.38a1.06,1.06,0,0,0-1,.74,1.46,1.46,0,0,0-.08.5V122h-2Z"/><path class="cls-4" d="M79,112.72v7.34c0,.71,0,1.46,0,1.89H77.27l-.09-.93h0a2.24,2.24,0,0,1-2,1.08c-1.51,0-2.72-1.29-2.72-3.27,0-2.14,1.33-3.38,2.85-3.38a2,2,0,0,1,1.68.72h0v-3.45Zm-2,5.57c0-.11,0-.25,0-.35a1.19,1.19,0,0,0-1.16-1c-.9,0-1.37.81-1.37,1.81s.54,1.75,1.36,1.75a1.16,1.16,0,0,0,1.14-1,1.59,1.59,0,0,0,0-.45Z"/><path class="cls-4" d="M83.18,120.22a3.7,3.7,0,0,0,1.7.49c.6,0,.84-.21.84-.54s-.19-.48-.93-.73C83.48,119,83,118.29,83,117.53c0-1.18,1-2.08,2.59-2.08a4.16,4.16,0,0,1,1.79.37L87,117.18a3.18,3.18,0,0,0-1.38-.36c-.48,0-.75.19-.75.52s.25.45,1,.73c1.21.41,1.71,1,1.73,2,0,1.18-.94,2-2.76,2a4.49,4.49,0,0,1-2-.44Z"/><path class="cls-4" d="M93.6,121.8a5,5,0,0,1-1.77.28,3.08,3.08,0,0,1-3.36-3.25,3.31,3.31,0,0,1,3.64-3.38,4.51,4.51,0,0,1,1.51.25l-.32,1.47a2.55,2.55,0,0,0-1.1-.2,1.79,1.79,0,0,0,0,3.57,3,3,0,0,0,1.13-.2Z"/><path class="cls-4" d="M98.36,122l-.12-.63h0a2.3,2.3,0,0,1-1.82.78,2,2,0,0,1-2-1.95c0-1.65,1.48-2.45,3.73-2.43v-.1c0-.33-.18-.81-1.16-.81a3.57,3.57,0,0,0-1.75.48L94.79,116a5.32,5.32,0,0,1,2.47-.56,2.47,2.47,0,0,1,2.79,2.75v2.21a10.42,10.42,0,0,0,.09,1.54Zm-.23-3c-1,0-1.85.23-1.85,1a.71.71,0,0,0,.78.76,1.09,1.09,0,0,0,1-.73,1.86,1.86,0,0,0,0-.34Z"/><path class="cls-4" d="M101.61,112.72h2V122h-2Z"/><path class="cls-4" d="M108.8,122l-.12-.63h0a2.3,2.3,0,0,1-1.82.78,2,2,0,0,1-2-1.95c0-1.65,1.48-2.45,3.73-2.43v-.1c0-.33-.18-.81-1.16-.81a3.54,3.54,0,0,0-1.75.48l-.37-1.28a5.39,5.39,0,0,1,2.47-.56,2.48,2.48,0,0,1,2.8,2.75v2.21a10.42,10.42,0,0,0,.09,1.54Zm-.23-3c-1,0-1.85.23-1.85,1a.71.71,0,0,0,.78.76,1.09,1.09,0,0,0,1-.73,1.86,1.86,0,0,0,0-.34Z"/><path class="cls-4" d="M112,122c0-.41,0-1.18,0-1.89v-7.34h2v3.63h0a2.24,2.24,0,0,1,1.93-.9c1.52,0,2.63,1.26,2.62,3.21,0,2.29-1.45,3.44-2.91,3.44a2.12,2.12,0,0,1-1.91-1h0l-.08.88Zm2-2.7a1.83,1.83,0,0,0,0,.35,1.21,1.21,0,0,0,1.16.94c.85,0,1.37-.65,1.37-1.8,0-1-.45-1.77-1.37-1.77a1.24,1.24,0,0,0-1.16,1,2.1,2.1,0,0,0,0,.36Z"/><path class="cls-4" d="M119.82,112.72h2V122h-2Z"/><path class="cls-4" d="M124.92,119.41c.06.81.87,1.2,1.79,1.2a5.57,5.57,0,0,0,1.76-.26l.26,1.34a6.26,6.26,0,0,1-2.3.39,3,3,0,0,1-3.4-3.23,3.19,3.19,0,0,1,3.22-3.4c2.05,0,2.83,1.6,2.83,3.18a4.33,4.33,0,0,1-.07.78Zm2.33-1.36a1.14,1.14,0,0,0-1.12-1.28,1.29,1.29,0,0,0-1.22,1.28Z"/><path class="cls-5" d="M171.16,161.71c0,5.3-3.21,8.52-7.94,8.52s-7.61-3.63-7.61-8.24c0-4.85,3.1-8.47,7.87-8.47C168.45,153.52,171.16,157.24,171.16,161.71Zm-11.69.21c0,3.17,1.49,5.4,3.94,5.4s3.89-2.35,3.89-5.49c0-2.91-1.39-5.41-3.91-5.41S159.47,158.78,159.47,161.92Z"/><path class="cls-5" d="M184.63,166.19c0,1.54,0,2.79.09,3.77h-3.17l-.16-1.65h-.08a4.18,4.18,0,0,1-3.67,1.92c-2.37,0-4.13-1.49-4.13-5.12v-6.89h3.68v6.32c0,1.7.55,2.73,1.82,2.73a2,2,0,0,0,1.94-2.06v-7h3.68Z"/><path class="cls-5" d="M187.55,162.09c0-1.73-.05-2.86-.09-3.87h3.14l.12,2.16h.1A3.45,3.45,0,0,1,194,158a3.54,3.54,0,0,1,.76,0v3.43a4.93,4.93,0,0,0-1-.1,2.35,2.35,0,0,0-2.5,1.85,4.18,4.18,0,0,0-.07.82v6h-3.65Z"/><path class="cls-5" d="M147.34,194l-5.18-16.18h4l2,6.85a58.8,58.8,0,0,1,1.44,5.78h.08c.4-1.94.91-3.87,1.46-5.71l2.06-6.92h3.89L151.61,194Z"/><path class="cls-5" d="M161.79,179a1.84,1.84,0,0,1-2,1.83,1.84,1.84,0,1,1,0-3.68A1.83,1.83,0,0,1,161.79,179ZM158,194V182.22h3.65V194Z"/><path class="cls-5" d="M164.57,190.77a7.16,7.16,0,0,0,3.15.89c1.1,0,1.56-.39,1.56-1s-.36-.88-1.73-1.34c-2.42-.82-3.36-2.14-3.34-3.53,0-2.18,1.87-3.84,4.78-3.84a7.86,7.86,0,0,1,3.31.67l-.65,2.52a5.81,5.81,0,0,0-2.54-.67c-.89,0-1.39.36-1.39,1s.45.84,1.89,1.35c2.24.76,3.17,1.89,3.2,3.62,0,2.18-1.73,3.79-5.09,3.79a8.34,8.34,0,0,1-3.8-.81Z"/><path class="cls-5" d="M178.78,179a1.84,1.84,0,0,1-2,1.83,1.84,1.84,0,1,1,0-3.68A1.83,1.83,0,0,1,178.78,179ZM175,194V182.22h3.65V194Z"/><path class="cls-5" d="M193.18,188a5.89,5.89,0,0,1-6.19,6.27,5.75,5.75,0,0,1-6.07-6,5.85,5.85,0,0,1,6.26-6.22A5.71,5.71,0,0,1,193.18,188Zm-8.49.12c0,2,.84,3.53,2.39,3.53s2.33-1.42,2.33-3.53c0-1.75-.67-3.53-2.33-3.53S184.69,186.35,184.69,188.08Z"/><path class="cls-5" d="M195.44,186c0-1.47-.05-2.71-.1-3.75h3.17l.17,1.61h.07a4.3,4.3,0,0,1,3.62-1.87c2.4,0,4.2,1.58,4.2,5v7h-3.65v-6.5c0-1.51-.52-2.55-1.84-2.55a2,2,0,0,0-1.85,1.37,2.44,2.44,0,0,0-.15.91V194h-3.64Z"/><path class="cls-4" d="M212.34,97.7l-.63,2.25h-2.05l2.68-8.76h2.6l2.71,8.76h-2.13l-.67-2.25Zm2.22-1.48L214,94.36c-.15-.52-.31-1.17-.44-1.69h0c-.13.52-.26,1.19-.41,1.69l-.52,1.86Z"/><path class="cls-4" d="M223.35,99.8a5,5,0,0,1-1.77.28,3.08,3.08,0,0,1-3.37-3.25,3.32,3.32,0,0,1,3.64-3.38,4.47,4.47,0,0,1,1.51.25l-.31,1.47a2.64,2.64,0,0,0-1.11-.2,1.79,1.79,0,0,0,0,3.57,3,3,0,0,0,1.13-.2Z"/><path class="cls-4" d="M229.07,99.8a5,5,0,0,1-1.77.28,3.08,3.08,0,0,1-3.37-3.25,3.32,3.32,0,0,1,3.64-3.38,4.51,4.51,0,0,1,1.51.25l-.31,1.47a2.6,2.6,0,0,0-1.11-.2,1.79,1.79,0,0,0,0,3.57,2.93,2.93,0,0,0,1.13-.2Z"/><path class="cls-4" d="M231.54,97.41c.06.81.87,1.2,1.79,1.2a5.62,5.62,0,0,0,1.76-.26l.26,1.34a6.3,6.3,0,0,1-2.3.39,3,3,0,0,1-3.4-3.23,3.18,3.18,0,0,1,3.21-3.4c2.06,0,2.84,1.6,2.84,3.18a4.33,4.33,0,0,1-.07.78Zm2.33-1.36a1.14,1.14,0,0,0-1.12-1.28,1.28,1.28,0,0,0-1.22,1.28Z"/><path class="cls-4" d="M236.88,90.72h2V100h-2Z"/><path class="cls-4" d="M242,97.41c.06.81.87,1.2,1.79,1.2a5.62,5.62,0,0,0,1.76-.26l.26,1.34a6.32,6.32,0,0,1-2.31.39,3,3,0,0,1-3.39-3.23,3.18,3.18,0,0,1,3.21-3.4c2.06,0,2.84,1.6,2.84,3.18a4.33,4.33,0,0,1-.07.78Zm2.32-1.36a1.14,1.14,0,0,0-1.11-1.28A1.3,1.3,0,0,0,242,96.05Z"/><path class="cls-4" d="M247.32,95.69c0-.94,0-1.55,0-2.09H249l.07,1.17h.05a1.86,1.86,0,0,1,1.71-1.32,1.76,1.76,0,0,1,.42,0v1.86a2.5,2.5,0,0,0-.53,0,1.28,1.28,0,0,0-1.36,1,2.87,2.87,0,0,0,0,.44V100h-2Z"/><path class="cls-4" d="M255.73,100l-.12-.63h0a2.3,2.3,0,0,1-1.82.78,2,2,0,0,1-2.05-1.95c0-1.65,1.48-2.45,3.73-2.43v-.1c0-.33-.18-.81-1.15-.81a3.61,3.61,0,0,0-1.76.48L252.16,94a5.32,5.32,0,0,1,2.47-.56,2.47,2.47,0,0,1,2.79,2.75v2.21a10.42,10.42,0,0,0,.09,1.54Zm-.23-3c-1,0-1.85.23-1.85,1a.71.71,0,0,0,.78.76,1.09,1.09,0,0,0,1-.73,1.86,1.86,0,0,0,0-.34Z"/><path class="cls-4" d="M261.09,91.78V93.6h1.41v1.45h-1.41v2.3c0,.77.18,1.12.78,1.12a2.9,2.9,0,0,0,.58,0v1.49a3.63,3.63,0,0,1-1.28.17,2.06,2.06,0,0,1-1.48-.54,2.62,2.62,0,0,1-.55-1.89v-2.6h-.85V93.6h.85V92.22Z"/><path class="cls-4" d="M265.1,97.41c.07.81.87,1.2,1.8,1.2a5.55,5.55,0,0,0,1.75-.26l.26,1.34a6.26,6.26,0,0,1-2.3.39,3,3,0,0,1-3.39-3.23,3.18,3.18,0,0,1,3.21-3.4c2.05,0,2.83,1.6,2.83,3.18a5.88,5.88,0,0,1-.06.78Zm2.33-1.36a1.14,1.14,0,0,0-1.12-1.28,1.29,1.29,0,0,0-1.22,1.28Z"/><path class="cls-4" d="M276.61,90.72v7.34c0,.71,0,1.46.05,1.89h-1.75l-.1-.93h0a2.23,2.23,0,0,1-2,1.08c-1.51,0-2.72-1.29-2.72-3.27,0-2.14,1.33-3.38,2.85-3.38a2,2,0,0,1,1.68.72h0V90.72Zm-2,5.57c0-.11,0-.25,0-.35a1.19,1.19,0,0,0-1.16-1c-.9,0-1.37.81-1.37,1.81s.54,1.75,1.36,1.75a1.16,1.16,0,0,0,1.14-1,1.59,1.59,0,0,0,.05-.45Z"/><path class="cls-4" d="M284.43,100l-.11-.63h0a2.32,2.32,0,0,1-1.82.78,2,2,0,0,1-2.06-1.95c0-1.65,1.49-2.45,3.74-2.43v-.1c0-.33-.19-.81-1.16-.81a3.61,3.61,0,0,0-1.76.48L280.86,94a5.32,5.32,0,0,1,2.47-.56,2.48,2.48,0,0,1,2.8,2.75v2.21a9.2,9.2,0,0,0,.09,1.54Zm-.23-3c-1,0-1.85.23-1.85,1a.71.71,0,0,0,.78.76,1.08,1.08,0,0,0,1-.73,1.27,1.27,0,0,0,0-.34Z"/><path class="cls-4" d="M287.68,95.62c0-.79,0-1.46-.05-2h1.72l.09.87h0a2.31,2.31,0,0,1,2-1c1.3,0,2.28.86,2.28,2.73V100h-2V96.43c0-.82-.28-1.38-1-1.38a1.05,1.05,0,0,0-1,.74,1.46,1.46,0,0,0-.08.5V100h-2Z"/><path class="cls-4" d="M301.46,90.72v7.34c0,.71,0,1.46.06,1.89h-1.76l-.09-.93h0a2.22,2.22,0,0,1-2,1.08c-1.51,0-2.72-1.29-2.72-3.27,0-2.14,1.32-3.38,2.85-3.38a1.92,1.92,0,0,1,1.67.72h0V90.72Zm-2,5.57a2,2,0,0,0,0-.35,1.17,1.17,0,0,0-1.15-1c-.9,0-1.37.81-1.37,1.81s.53,1.75,1.35,1.75a1.17,1.17,0,0,0,1.15-1,1.59,1.59,0,0,0,.05-.45Z"/><path class="cls-4" d="M210.19,114l-.12-.63h0a2.32,2.32,0,0,1-1.82.78,2,2,0,0,1-2.05-1.95c0-1.65,1.48-2.45,3.73-2.43v-.1c0-.33-.18-.81-1.16-.81a3.61,3.61,0,0,0-1.76.48l-.36-1.28a5.32,5.32,0,0,1,2.47-.56,2.48,2.48,0,0,1,2.8,2.75v2.21A9.2,9.2,0,0,0,212,114Zm-.24-3c-1,0-1.84.23-1.84,1a.71.71,0,0,0,.77.76,1.08,1.08,0,0,0,1-.73,1.27,1.27,0,0,0,0-.34Z"/><path class="cls-4" d="M218.21,113.8a5,5,0,0,1-1.77.28,3.08,3.08,0,0,1-3.37-3.25,3.32,3.32,0,0,1,3.64-3.38,4.51,4.51,0,0,1,1.51.25l-.31,1.47a2.64,2.64,0,0,0-1.11-.2,1.79,1.79,0,0,0,0,3.57,3,3,0,0,0,1.13-.2Z"/><path class="cls-4" d="M223.93,113.8a5,5,0,0,1-1.77.28,3.08,3.08,0,0,1-3.37-3.25,3.32,3.32,0,0,1,3.64-3.38,4.51,4.51,0,0,1,1.51.25l-.31,1.47a2.64,2.64,0,0,0-1.11-.2,1.79,1.79,0,0,0,0,3.57,3,3,0,0,0,1.13-.2Z"/><path class="cls-4" d="M231,111.91c0,.83,0,1.51.05,2h-1.71l-.09-.89h0a2.28,2.28,0,0,1-2,1c-1.29,0-2.24-.81-2.24-2.77V107.6h2V111c0,.92.3,1.48,1,1.48a1.07,1.07,0,0,0,1-.69,1.15,1.15,0,0,0,.06-.43V107.6h2Z"/><path class="cls-4" d="M232.6,109.69c0-.94,0-1.55-.06-2.09h1.71l.06,1.17h.06a1.87,1.87,0,0,1,2.13-1.29v1.86a2.61,2.61,0,0,0-.54,0,1.27,1.27,0,0,0-1.35,1,2.87,2.87,0,0,0,0,.44V114h-2Z"/><path class="cls-4" d="M241,114l-.12-.63h0a2.3,2.3,0,0,1-1.82.78,2,2,0,0,1-2.05-1.95c0-1.65,1.48-2.45,3.73-2.43v-.1c0-.33-.18-.81-1.16-.81a3.54,3.54,0,0,0-1.75.48l-.37-1.28a5.39,5.39,0,0,1,2.47-.56,2.48,2.48,0,0,1,2.8,2.75v2.21a9.2,9.2,0,0,0,.09,1.54Zm-.24-3c-1,0-1.84.23-1.84,1a.71.71,0,0,0,.78.76,1.09,1.09,0,0,0,1-.73,1.87,1.87,0,0,0,0-.34Z"/><path class="cls-4" d="M246.36,105.78v1.82h1.42v1.45h-1.42v2.3c0,.77.19,1.12.78,1.12a2.94,2.94,0,0,0,.59,0v1.49a3.71,3.71,0,0,1-1.28.17,2.1,2.1,0,0,1-1.49-.54,2.67,2.67,0,0,1-.54-1.89v-2.6h-.85V107.6h.85v-1.38Z"/><path class="cls-4" d="M250.38,111.41c.07.81.87,1.2,1.8,1.2a5.55,5.55,0,0,0,1.75-.26l.26,1.34a6.26,6.26,0,0,1-2.3.39,3,3,0,0,1-3.39-3.23,3.18,3.18,0,0,1,3.21-3.4c2,0,2.83,1.6,2.83,3.18a5.88,5.88,0,0,1-.06.78Zm2.33-1.36a1.14,1.14,0,0,0-1.12-1.28,1.29,1.29,0,0,0-1.22,1.28Z"/><path class="cls-4" d="M264.51,104.72v7.34c0,.71,0,1.46.05,1.89h-1.75l-.09-.93h0a2.23,2.23,0,0,1-2,1.08c-1.5,0-2.71-1.29-2.71-3.27,0-2.14,1.32-3.38,2.84-3.38a2,2,0,0,1,1.68.72h0v-3.45Zm-2,5.57c0-.11,0-.25,0-.35a1.19,1.19,0,0,0-1.16-1c-.89,0-1.36.81-1.36,1.81s.53,1.75,1.35,1.75a1.15,1.15,0,0,0,1.14-1,1.58,1.58,0,0,0,.06-.45Z"/><path class="cls-4" d="M267.62,111.41c.06.81.87,1.2,1.79,1.2a5.62,5.62,0,0,0,1.76-.26l.26,1.34a6.26,6.26,0,0,1-2.3.39,3,3,0,0,1-3.4-3.23,3.19,3.19,0,0,1,3.22-3.4c2.05,0,2.83,1.6,2.83,3.18a4.33,4.33,0,0,1-.07.78Zm2.33-1.36a1.14,1.14,0,0,0-1.12-1.28,1.29,1.29,0,0,0-1.22,1.28Z"/><path class="cls-4" d="M277.73,113.8a5,5,0,0,1-1.77.28,3.08,3.08,0,0,1-3.36-3.25,3.31,3.31,0,0,1,3.64-3.38,4.51,4.51,0,0,1,1.51.25l-.32,1.47a2.55,2.55,0,0,0-1.1-.2,1.79,1.79,0,0,0,0,3.57,3,3,0,0,0,1.13-.2Z"/><path class="cls-4" d="M280.87,105.83a1,1,0,0,1-1.07,1,1,1,0,1,1,0-2A1,1,0,0,1,280.87,105.83ZM278.82,114V107.6h2V114Z"/><path class="cls-4" d="M282.37,112.22a3.78,3.78,0,0,0,1.71.49c.59,0,.84-.21.84-.54s-.19-.48-.93-.73c-1.32-.44-1.82-1.15-1.81-1.91,0-1.18,1-2.08,2.59-2.08a4.16,4.16,0,0,1,1.79.37l-.35,1.36a3.22,3.22,0,0,0-1.38-.36c-.48,0-.75.19-.75.52s.24.45,1,.73c1.21.41,1.72,1,1.73,2,0,1.18-.93,2-2.75,2a4.5,4.5,0,0,1-2.06-.44Z"/><path class="cls-4" d="M290.07,105.83a1,1,0,0,1-1.07,1,1,1,0,1,1,0-2A1,1,0,0,1,290.07,105.83ZM288,114V107.6h2V114Z"/><path class="cls-4" d="M297.87,110.7a3.19,3.19,0,0,1-3.35,3.4,3.12,3.12,0,0,1-3.29-3.28,3.18,3.18,0,0,1,3.39-3.37A3.09,3.09,0,0,1,297.87,110.7Zm-4.6.07c0,1.09.45,1.91,1.3,1.91s1.26-.77,1.26-1.91c0-1-.37-1.91-1.26-1.91S293.27,109.83,293.27,110.77Z"/><path class="cls-4" d="M299.09,109.62c0-.79,0-1.46,0-2h1.72l.09.87h0a2.33,2.33,0,0,1,2-1c1.3,0,2.27.86,2.27,2.73V114h-2v-3.52c0-.82-.29-1.38-1-1.38a1.05,1.05,0,0,0-1,.74,1.25,1.25,0,0,0-.08.5V114h-2Z"/><path class="cls-4" d="M236,123.62c0-.79,0-1.46,0-2h1.66l.09.85h0a2.24,2.24,0,0,1,1.93-1,1.8,1.8,0,0,1,1.74,1.08h0a3,3,0,0,1,.83-.76,2.26,2.26,0,0,1,1.2-.32c1.23,0,2.15.86,2.15,2.76V128h-1.93V124.5c0-.93-.29-1.46-.93-1.46a1,1,0,0,0-.91.69,1.7,1.7,0,0,0-.08.51V128h-1.92v-3.56c0-.8-.29-1.35-.91-1.35a1,1,0,0,0-.93.71,1.44,1.44,0,0,0-.07.5V128H236Z"/><path class="cls-4" d="M250.75,128l-.12-.63h0a2.32,2.32,0,0,1-1.82.78,2,2,0,0,1-2.06-1.95c0-1.65,1.49-2.45,3.74-2.43v-.1c0-.33-.19-.81-1.16-.81a3.61,3.61,0,0,0-1.76.48l-.36-1.28a5.32,5.32,0,0,1,2.47-.56,2.48,2.48,0,0,1,2.8,2.75v2.21a9.2,9.2,0,0,0,.09,1.54Zm-.24-3c-1,0-1.84.23-1.84,1a.71.71,0,0,0,.78.76,1.08,1.08,0,0,0,1-.73,1.27,1.27,0,0,0,0-.34Z"/><path class="cls-4" d="M256,124.27h0c.14-.26.3-.52.45-.76l1.29-1.91h2.38l-2.28,2.57,2.6,3.78H258l-1.53-2.61L256,126v2h-2v-9.23h2Z"/><path class="cls-4" d="M263.21,119.83a1,1,0,0,1-1.06,1,1,1,0,1,1,0-2A1,1,0,0,1,263.21,119.83Zm-2,8.12V121.6h2V128Z"/><path class="cls-4" d="M264.73,123.62c0-.79,0-1.46-.05-2h1.72l.09.87h0a2.31,2.31,0,0,1,2-1c1.3,0,2.27.86,2.27,2.73V128h-2v-3.52c0-.82-.29-1.38-1-1.38a1.05,1.05,0,0,0-1,.74,1.25,1.25,0,0,0-.08.5V128h-2Z"/><path class="cls-4" d="M278.42,121.6c0,.4-.05.93-.05,1.88V127a3.68,3.68,0,0,1-1,2.86,3.91,3.91,0,0,1-2.59.78,5,5,0,0,1-2.29-.49l.39-1.5a3.88,3.88,0,0,0,1.85.48,1.51,1.51,0,0,0,1.65-1.67v-.42h0a2,2,0,0,1-1.71.83c-1.58,0-2.69-1.27-2.69-3.11a3,3,0,0,1,2.88-3.34,1.94,1.94,0,0,1,1.75.9h0l.07-.75Zm-2,2.58a1.94,1.94,0,0,0,0-.36,1.1,1.1,0,0,0-1.07-.87c-.72,0-1.3.65-1.3,1.81,0,.94.47,1.69,1.3,1.69a1.07,1.07,0,0,0,1-.81,1.73,1.73,0,0,0,.06-.52Z"/><path class="cls-4" d="M239.57,223.29h-3.23v2.09h3.6V227h-5.59v-8.76h5.41v1.62h-3.42v1.82h3.23Z"/><path class="cls-4" d="M241.23,222.67c0-.79,0-1.47,0-2h1.71l.1.87h0a2.34,2.34,0,0,1,2-1c1.3,0,2.27.86,2.27,2.73V227h-2v-3.52c0-.82-.29-1.38-1-1.38a1.07,1.07,0,0,0-1,.74,1.41,1.41,0,0,0-.07.49V227h-2Z"/><path class="cls-4" d="M251,218.82v1.82h1.42v1.46H251v2.3c0,.77.18,1.12.78,1.12a4.06,4.06,0,0,0,.59-.05V227a3.73,3.73,0,0,1-1.29.17,2,2,0,0,1-1.48-.55,2.62,2.62,0,0,1-.55-1.88v-2.6h-.84v-1.46H249v-1.38Z"/><path class="cls-4" d="M255,224.45c.06.82.87,1.21,1.79,1.21a5.62,5.62,0,0,0,1.76-.26l.26,1.34a6.3,6.3,0,0,1-2.3.39,3.06,3.06,0,0,1-3.4-3.24,3.18,3.18,0,0,1,3.21-3.39c2.06,0,2.84,1.6,2.84,3.17a4.14,4.14,0,0,1-.07.78Zm2.32-1.35a1.14,1.14,0,0,0-1.11-1.29A1.31,1.31,0,0,0,255,223.1Z"/><path class="cls-4" d="M260.34,222.74c0-.94,0-1.55,0-2.1H262l.07,1.17h.05a1.86,1.86,0,0,1,1.71-1.31,1.76,1.76,0,0,1,.42,0v1.85a3.41,3.41,0,0,0-.53,0,1.27,1.27,0,0,0-1.35,1,2.09,2.09,0,0,0,0,.45V227h-2Z"/><path class="cls-4" d="M265.28,222.77c0-.83,0-1.54,0-2.13h1.71l.1.89h0a2.44,2.44,0,0,1,2.12-1c1.39,0,2.64,1.21,2.64,3.24,0,2.31-1.47,3.4-2.89,3.4a2,2,0,0,1-1.65-.72h0v3.15h-2Zm2,1.5a2.58,2.58,0,0,0,0,.42,1.2,1.2,0,0,0,1.16.93c.86,0,1.37-.71,1.37-1.79s-.46-1.78-1.34-1.78a1.24,1.24,0,0,0-1.19,1,1.9,1.9,0,0,0,0,.35Z"/><path class="cls-4" d="M273.05,222.74c0-.94,0-1.55-.05-2.1h1.71l.06,1.17h.05a1.88,1.88,0,0,1,1.72-1.31,1.71,1.71,0,0,1,.41,0v1.85a3.41,3.41,0,0,0-.53,0,1.27,1.27,0,0,0-1.35,1,2.09,2.09,0,0,0,0,.45V227h-2Z"/><path class="cls-4" d="M280,218.88a1,1,0,0,1-1.07,1,1,1,0,1,1,0-2A1,1,0,0,1,280,218.88ZM278,227v-6.36h2V227Z"/><path class="cls-4" d="M281.54,225.27a3.91,3.91,0,0,0,1.71.48c.59,0,.84-.21.84-.53s-.19-.48-.93-.73c-1.32-.44-1.83-1.16-1.81-1.91,0-1.18,1-2.08,2.59-2.08a4.33,4.33,0,0,1,1.79.36l-.35,1.37a3.08,3.08,0,0,0-1.38-.36c-.48,0-.75.19-.75.51s.24.46,1,.73c1.21.42,1.72,1,1.73,2,0,1.18-.93,2-2.75,2a4.5,4.5,0,0,1-2.06-.44Z"/><path class="cls-4" d="M288.72,224.45c.06.82.87,1.21,1.79,1.21a5.62,5.62,0,0,0,1.76-.26l.26,1.34a6.3,6.3,0,0,1-2.3.39,3.06,3.06,0,0,1-3.4-3.24A3.18,3.18,0,0,1,290,220.5c2.06,0,2.84,1.6,2.84,3.17a4.14,4.14,0,0,1-.07.78Zm2.33-1.35a1.15,1.15,0,0,0-1.12-1.29,1.3,1.3,0,0,0-1.22,1.29Z"/><path class="cls-4" d="M297.46,222.93v1.31h-3.41v-1.31Z"/><path class="cls-4" d="M300,220.64l.51,2.6c.13.67.26,1.37.36,2.1h0c.13-.73.31-1.46.47-2.08l.67-2.62h1.56l.64,2.54c.17.71.34,1.43.47,2.16h0c.1-.73.23-1.45.37-2.17l.54-2.53h1.94L305.63,227h-1.86l-.6-2.24c-.15-.62-.27-1.19-.4-2h0a14.87,14.87,0,0,1-.42,2l-.64,2.24h-1.86L298,220.64Z"/><path class="cls-4" d="M310.54,218.88a1,1,0,0,1-1.06,1,1,1,0,1,1,0-2A1,1,0,0,1,310.54,218.88Zm-2,8.12v-6.36h2V227Z"/><path class="cls-4" d="M318.23,217.77v7.33c0,.72,0,1.47,0,1.9h-1.75l-.1-.94h0a2.21,2.21,0,0,1-2,1.08c-1.51,0-2.72-1.28-2.72-3.26,0-2.15,1.33-3.38,2.85-3.38a2,2,0,0,1,1.68.71h0v-3.44Zm-2,5.56c0-.1,0-.24,0-.35a1.19,1.19,0,0,0-1.16-1c-.9,0-1.37.8-1.37,1.8s.54,1.76,1.36,1.76a1.16,1.16,0,0,0,1.14-.95,1.64,1.64,0,0,0,.05-.45Z"/><path class="cls-4" d="M321.33,224.45c.07.82.88,1.21,1.8,1.21a5.51,5.51,0,0,0,1.75-.26l.26,1.34a6.26,6.26,0,0,1-2.3.39,3.05,3.05,0,0,1-3.39-3.24,3.18,3.18,0,0,1,3.21-3.39c2.06,0,2.84,1.6,2.84,3.17a4.14,4.14,0,0,1-.07.78Zm2.33-1.35a1.15,1.15,0,0,0-1.12-1.29,1.3,1.3,0,0,0-1.22,1.29Z"/><path class="cls-4" d="M235.76,232.88a1,1,0,0,1-1.06,1,1,1,0,1,1,0-2A1,1,0,0,1,235.76,232.88Zm-2,8.12v-6.36h2V241Z"/><path class="cls-4" d="M237.29,236.67c0-.79,0-1.47-.06-2h1.67l.09.86h0a2.2,2.2,0,0,1,1.92-1,1.8,1.8,0,0,1,1.74,1.08h0a2.71,2.71,0,0,1,.82-.77,2.27,2.27,0,0,1,1.21-.31c1.22,0,2.14.86,2.14,2.76V241H245v-3.46c0-.92-.3-1.45-.94-1.45a1,1,0,0,0-.91.68,1.81,1.81,0,0,0-.08.51V241h-1.92v-3.56c0-.81-.29-1.35-.91-1.35a1,1,0,0,0-.92.71,1.23,1.23,0,0,0-.08.49V241h-1.92Z"/><path class="cls-4" d="M248.46,236.77c0-.83,0-1.54-.05-2.13h1.72l.09.89h0a2.42,2.42,0,0,1,2.12-1c1.39,0,2.63,1.21,2.63,3.24,0,2.31-1.46,3.4-2.88,3.4a2,2,0,0,1-1.65-.72h0v3.15h-2Zm2,1.5a1.76,1.76,0,0,0,0,.42,1.19,1.19,0,0,0,1.16.93c.86,0,1.36-.71,1.36-1.79s-.45-1.78-1.34-1.78a1.23,1.23,0,0,0-1.18,1,1.29,1.29,0,0,0,0,.35Z"/><path class="cls-4" d="M256.24,231.77h2V241h-2Z"/><path class="cls-4" d="M261.33,238.45c.07.82.88,1.21,1.8,1.21a5.55,5.55,0,0,0,1.75-.26l.26,1.34a6.26,6.26,0,0,1-2.3.39,3,3,0,0,1-3.39-3.24,3.18,3.18,0,0,1,3.21-3.39c2,0,2.83,1.6,2.83,3.17a4.36,4.36,0,0,1-.06.78Zm2.33-1.35a1.15,1.15,0,0,0-1.12-1.29,1.3,1.3,0,0,0-1.22,1.29Z"/><path class="cls-4" d="M266.68,236.67c0-.79,0-1.47-.05-2h1.66l.09.86h0a2.2,2.2,0,0,1,1.92-1,1.82,1.82,0,0,1,1.75,1.08h0a2.83,2.83,0,0,1,.82-.77,2.27,2.27,0,0,1,1.21-.31c1.22,0,2.15.86,2.15,2.76V241h-1.93v-3.46c0-.92-.3-1.45-.94-1.45a1,1,0,0,0-.91.68,1.79,1.79,0,0,0-.07.51V241h-1.93v-3.56c0-.81-.28-1.35-.91-1.35a1,1,0,0,0-.92.71,1.23,1.23,0,0,0-.08.49V241h-1.92Z"/><path class="cls-4" d="M279.38,238.45c.06.82.87,1.21,1.79,1.21a5.62,5.62,0,0,0,1.76-.26l.26,1.34a6.3,6.3,0,0,1-2.3.39,3.06,3.06,0,0,1-3.4-3.24,3.18,3.18,0,0,1,3.21-3.39c2.06,0,2.84,1.6,2.84,3.17a4.14,4.14,0,0,1-.07.78Zm2.33-1.35a1.15,1.15,0,0,0-1.12-1.29,1.29,1.29,0,0,0-1.22,1.29Z"/><path class="cls-4" d="M284.72,236.67c0-.79,0-1.47-.05-2h1.71l.1.87h0a2.35,2.35,0,0,1,2-1c1.3,0,2.27.86,2.27,2.73V241h-2v-3.52c0-.82-.29-1.38-1-1.38a1.05,1.05,0,0,0-1,.74,1.2,1.2,0,0,0-.08.49V241h-2Z"/><path class="cls-4" d="M294.47,232.82v1.82h1.42v1.46h-1.42v2.3c0,.77.18,1.12.78,1.12a4.06,4.06,0,0,0,.59-.05V241a3.73,3.73,0,0,1-1.29.17,2,2,0,0,1-1.48-.55,2.62,2.62,0,0,1-.55-1.88v-2.6h-.84v-1.46h.84v-1.38Z"/><path class="cls-4" d="M300.65,241l-.12-.64h0a2.29,2.29,0,0,1-1.82.78,1.94,1.94,0,0,1-2.05-1.95c0-1.65,1.48-2.44,3.73-2.43v-.09c0-.34-.18-.82-1.16-.82a3.54,3.54,0,0,0-1.75.48l-.37-1.27a5.19,5.19,0,0,1,2.47-.56,2.48,2.48,0,0,1,2.8,2.74v2.21a9.33,9.33,0,0,0,.09,1.55Zm-.24-3c-1,0-1.84.23-1.84,1a.71.71,0,0,0,.78.75,1.07,1.07,0,0,0,1-.73,1.19,1.19,0,0,0,0-.33Z"/><path class="cls-4" d="M306,232.82v1.82h1.42v1.46H306v2.3c0,.77.18,1.12.78,1.12a4.06,4.06,0,0,0,.59-.05V241a3.73,3.73,0,0,1-1.29.17,2,2,0,0,1-1.48-.55,2.62,2.62,0,0,1-.54-1.88v-2.6h-.85v-1.46h.85v-1.38Z"/><path class="cls-4" d="M310.6,232.88a1,1,0,0,1-1.06,1,1,1,0,1,1,0-2A1,1,0,0,1,310.6,232.88Zm-2,8.12v-6.36h2V241Z"/><path class="cls-4" d="M318.4,237.75a3.18,3.18,0,0,1-3.35,3.39,3.11,3.11,0,0,1-3.29-3.27,3.17,3.17,0,0,1,3.39-3.37A3.09,3.09,0,0,1,318.4,237.75Zm-4.6.06c0,1.1.46,1.92,1.3,1.92s1.26-.77,1.26-1.92c0-.94-.36-1.91-1.26-1.91S313.8,236.88,313.8,237.81Z"/><path class="cls-4" d="M319.63,236.67c0-.79,0-1.47-.06-2h1.72l.09.87h0a2.33,2.33,0,0,1,2-1c1.3,0,2.28.86,2.28,2.73V241h-2v-3.52c0-.82-.28-1.38-1-1.38a1.05,1.05,0,0,0-1,.74,1.4,1.4,0,0,0-.08.49V241h-2Z"/><path class="cls-4" d="M99.22,308.39l-.63,2.25h-2l2.68-8.76h2.6l2.71,8.76H102.4l-.67-2.25Zm2.22-1.48-.55-1.86c-.15-.52-.31-1.17-.44-1.69h0c-.14.52-.26,1.18-.41,1.69l-.52,1.86Z"/><path class="cls-4" d="M111.62,301.41v7.33c0,.72,0,1.47,0,1.9h-1.75l-.1-.93h0a2.22,2.22,0,0,1-2,1.07c-1.51,0-2.72-1.28-2.72-3.26,0-2.14,1.33-3.38,2.85-3.38a1.93,1.93,0,0,1,1.68.72h0v-3.45Zm-2,5.56c0-.1,0-.24,0-.35a1.19,1.19,0,0,0-1.16-1c-.9,0-1.37.8-1.37,1.81s.54,1.75,1.36,1.75a1.16,1.16,0,0,0,1.14-.95,1.59,1.59,0,0,0,0-.45Z"/><path class="cls-4" d="M119.48,307.39a3.18,3.18,0,0,1-3.35,3.39,3.11,3.11,0,0,1-3.29-3.27,3.17,3.17,0,0,1,3.39-3.37A3.09,3.09,0,0,1,119.48,307.39Zm-4.6.07c0,1.09.46,1.91,1.3,1.91s1.26-.77,1.26-1.91c0-.95-.36-1.92-1.26-1.92S114.88,306.52,114.88,307.46Z"/><path class="cls-4" d="M120.7,306.42c0-.84,0-1.55,0-2.14h1.72l.09.89h0a2.41,2.41,0,0,1,2.11-1c1.4,0,2.64,1.21,2.64,3.24,0,2.31-1.47,3.4-2.88,3.4a2,2,0,0,1-1.65-.72h0v3.15h-2Zm2,1.49a1.76,1.76,0,0,0,0,.42,1.19,1.19,0,0,0,1.16.93c.85,0,1.36-.71,1.36-1.79s-.45-1.78-1.34-1.78a1.23,1.23,0,0,0-1.18,1,1.29,1.29,0,0,0,0,.35Z"/><path class="cls-4" d="M130.69,302.46v1.82h1.42v1.46h-1.42V308c0,.77.18,1.12.78,1.12a3.78,3.78,0,0,0,.58-.05l0,1.49a3.73,3.73,0,0,1-1.29.17,2,2,0,0,1-1.48-.55,2.58,2.58,0,0,1-.55-1.88v-2.6h-.84v-1.46h.84v-1.37Z"/><path class="cls-4" d="M136.86,310.64l-.11-.64h0a2.29,2.29,0,0,1-1.82.78,2,2,0,0,1-2.06-1.95c0-1.65,1.49-2.44,3.73-2.43v-.09c0-.34-.18-.82-1.15-.82a3.61,3.61,0,0,0-1.76.48l-.36-1.27a5.19,5.19,0,0,1,2.47-.56,2.47,2.47,0,0,1,2.79,2.74v2.21a9.08,9.08,0,0,0,.1,1.55Zm-.23-3c-1,0-1.85.23-1.85,1a.71.71,0,0,0,.78.75,1.07,1.07,0,0,0,1-.73,1.19,1.19,0,0,0,0-.33Z"/><path class="cls-4" d="M140.06,310.64c0-.42.05-1.18.05-1.9v-7.33h2V305h0a2.22,2.22,0,0,1,1.92-.9c1.52,0,2.64,1.26,2.63,3.21,0,2.29-1.46,3.43-2.92,3.43a2.12,2.12,0,0,1-1.91-1h0l-.08.88Zm2-2.7a1.29,1.29,0,0,0,0,.35,1.19,1.19,0,0,0,1.16.93c.84,0,1.36-.65,1.36-1.79s-.44-1.77-1.36-1.77a1.22,1.22,0,0,0-1.16,1,1.37,1.37,0,0,0,0,.36Z"/><path class="cls-4" d="M147.89,301.41h2v9.23h-2Z"/><path class="cls-4" d="M153,308.09c.07.82.87,1.21,1.8,1.21a5.55,5.55,0,0,0,1.75-.26l.26,1.34a6.26,6.26,0,0,1-2.3.39,3,3,0,0,1-3.39-3.24,3.18,3.18,0,0,1,3.21-3.39c2.05,0,2.83,1.6,2.83,3.17a5.58,5.58,0,0,1-.06.78Zm2.33-1.35a1.15,1.15,0,0,0-1.12-1.29,1.3,1.3,0,0,0-1.22,1.29Z"/><path class="cls-4" d="M164.57,310.64l-.12-.64h0a2.29,2.29,0,0,1-1.82.78,1.94,1.94,0,0,1-2.05-1.95c0-1.65,1.48-2.44,3.73-2.43v-.09c0-.34-.18-.82-1.16-.82a3.61,3.61,0,0,0-1.76.48L161,304.7a5.19,5.19,0,0,1,2.47-.56,2.48,2.48,0,0,1,2.8,2.74v2.21a9.26,9.26,0,0,0,.09,1.55Zm-.24-3c-1,0-1.84.23-1.84,1a.7.7,0,0,0,.78.75,1.07,1.07,0,0,0,1-.73,1.19,1.19,0,0,0,0-.33Z"/><path class="cls-4" d="M167.82,306.31c0-.79,0-1.47-.06-2h1.72l.09.87h0a2.33,2.33,0,0,1,2-1c1.3,0,2.28.86,2.28,2.73v3.77h-2v-3.52c0-.82-.28-1.38-1-1.38a1.06,1.06,0,0,0-1,.74,1.4,1.4,0,0,0-.08.49v3.67h-2Z"/><path class="cls-4" d="M181.6,301.41v7.33c0,.72,0,1.47.05,1.9h-1.76l-.09-.93h0a2.23,2.23,0,0,1-2,1.07c-1.51,0-2.72-1.28-2.72-3.26,0-2.14,1.33-3.38,2.85-3.38a1.9,1.9,0,0,1,1.67.72h0v-3.45Zm-2,5.56a2.16,2.16,0,0,0,0-.35,1.17,1.17,0,0,0-1.15-1c-.9,0-1.37.8-1.37,1.81s.54,1.75,1.35,1.75a1.16,1.16,0,0,0,1.15-.95,1.59,1.59,0,0,0,.05-.45Z"/><path class="cls-4" d="M191.09,306.94h-3.23V309h3.6v1.62h-5.59v-8.76h5.41v1.62h-3.42v1.82h3.23Z"/><path class="cls-4" d="M194.26,304.28l.62,1.06c.18.32.35.65.52,1h0c.17-.34.32-.67.49-1l.56-1h2.15l-2.1,3,2.12,3.33h-2.23l-.64-1.14c-.18-.32-.34-.64-.49-1h0c-.16.34-.33.65-.48,1l-.6,1.14H192l2.15-3.24-2.1-3.12Z"/><path class="cls-4" d="M199.5,306.42c0-.84,0-1.55-.05-2.14h1.71l.09.89h0a2.43,2.43,0,0,1,2.12-1c1.39,0,2.64,1.21,2.64,3.24,0,2.31-1.47,3.4-2.89,3.4a2,2,0,0,1-1.65-.72h0v3.15h-2Zm2,1.49a2.5,2.5,0,0,0,0,.42,1.2,1.2,0,0,0,1.16.93c.86,0,1.36-.71,1.36-1.79s-.45-1.78-1.33-1.78a1.24,1.24,0,0,0-1.19,1,1.87,1.87,0,0,0,0,.35Z"/><path class="cls-4" d="M207.27,301.41h2v9.23h-2Z"/><path class="cls-4" d="M214.46,310.64l-.12-.64h0a2.26,2.26,0,0,1-1.82.78,2,2,0,0,1-2-1.95c0-1.65,1.48-2.44,3.73-2.43v-.09c0-.34-.18-.82-1.16-.82a3.57,3.57,0,0,0-1.75.48l-.37-1.27a5.27,5.27,0,0,1,2.48-.56,2.47,2.47,0,0,1,2.79,2.74v2.21a10.47,10.47,0,0,0,.09,1.55Zm-.23-3c-1,0-1.85.23-1.85,1a.71.71,0,0,0,.78.75,1.08,1.08,0,0,0,1-.73,1.75,1.75,0,0,0,0-.33Z"/><path class="cls-4" d="M219.75,302.52a1,1,0,0,1-1.06,1,1,1,0,1,1,0-2A1,1,0,0,1,219.75,302.52Zm-2,8.12v-6.36h2v6.36Z"/><path class="cls-4" d="M221.27,306.31c0-.79,0-1.47-.05-2h1.72l.09.87h0a2.33,2.33,0,0,1,2-1c1.3,0,2.27.86,2.27,2.73v3.77h-2v-3.52c0-.82-.29-1.38-1-1.38a1.05,1.05,0,0,0-1,.74,1.2,1.2,0,0,0-.08.49v3.67h-2Z"/><path class="cls-4" d="M232.5,310.64l-.11-.64h0a2.29,2.29,0,0,1-1.82.78,2,2,0,0,1-2.06-1.95c0-1.65,1.49-2.44,3.74-2.43v-.09c0-.34-.19-.82-1.16-.82a3.61,3.61,0,0,0-1.76.48l-.36-1.27a5.19,5.19,0,0,1,2.47-.56,2.47,2.47,0,0,1,2.79,2.74v2.21a9.08,9.08,0,0,0,.1,1.55Zm-.23-3c-1,0-1.85.23-1.85,1a.71.71,0,0,0,.78.75,1.07,1.07,0,0,0,1-.73,1.19,1.19,0,0,0,0-.33Z"/><path class="cls-4" d="M235.7,310.64c0-.42.05-1.18.05-1.9v-7.33h2V305h0a2.22,2.22,0,0,1,1.92-.9c1.52,0,2.64,1.26,2.63,3.21,0,2.29-1.46,3.43-2.92,3.43a2.12,2.12,0,0,1-1.91-1h0l-.08.88Zm2-2.7a1.29,1.29,0,0,0,0,.35,1.19,1.19,0,0,0,1.16.93c.84,0,1.36-.65,1.36-1.79s-.44-1.77-1.36-1.77a1.22,1.22,0,0,0-1.16,1,1.37,1.37,0,0,0,0,.36Z"/><path class="cls-4" d="M243.53,301.41h2v9.23h-2Z"/><path class="cls-4" d="M248.62,308.09c.07.82.88,1.21,1.8,1.21a5.55,5.55,0,0,0,1.75-.26l.26,1.34a6.26,6.26,0,0,1-2.3.39,3,3,0,0,1-3.39-3.24,3.18,3.18,0,0,1,3.21-3.39c2.05,0,2.83,1.6,2.83,3.17a4.36,4.36,0,0,1-.06.78Zm2.33-1.35a1.15,1.15,0,0,0-1.12-1.29,1.3,1.3,0,0,0-1.22,1.29Z"/><path class="cls-4" d="M135.36,324.39a5.47,5.47,0,0,1-2.25.38c-3,0-4.59-1.88-4.59-4.38a4.47,4.47,0,0,1,4.79-4.65,5,5,0,0,1,2.16.39l-.41,1.57a4.23,4.23,0,0,0-1.66-.33,2.64,2.64,0,0,0-2.8,2.9,2.61,2.61,0,0,0,2.81,2.86,5.1,5.1,0,0,0,1.65-.28Z"/><path class="cls-4" d="M142.63,321.39a3.18,3.18,0,0,1-3.35,3.39,3.11,3.11,0,0,1-3.29-3.27,3.17,3.17,0,0,1,3.39-3.37A3.09,3.09,0,0,1,142.63,321.39Zm-4.6.07c0,1.09.45,1.91,1.3,1.91s1.26-.77,1.26-1.91c0-.95-.37-1.92-1.26-1.92S138,320.52,138,321.46Z"/><path class="cls-4" d="M143.85,320.31c0-.79,0-1.47,0-2h1.66l.09.86h0a2.24,2.24,0,0,1,1.93-1,1.8,1.8,0,0,1,1.74,1.08h0a2.8,2.8,0,0,1,.81-.77,2.32,2.32,0,0,1,1.21-.31c1.23,0,2.15.86,2.15,2.76v3.74h-1.93v-3.46c0-.92-.29-1.45-.93-1.45a1,1,0,0,0-.91.69,1.69,1.69,0,0,0-.08.5v3.72h-1.92v-3.56c0-.81-.29-1.35-.91-1.35a1,1,0,0,0-.93.71,1.44,1.44,0,0,0-.07.5v3.7h-1.93Z"/><path class="cls-4" d="M155,320.42c0-.84,0-1.55-.05-2.14h1.71l.1.89h0a2.44,2.44,0,0,1,2.12-1c1.39,0,2.64,1.21,2.64,3.24,0,2.31-1.47,3.4-2.89,3.4a2,2,0,0,1-1.65-.72h0v3.15h-2Zm2,1.49a1.76,1.76,0,0,0,0,.42,1.19,1.19,0,0,0,1.15.93c.86,0,1.37-.71,1.37-1.79s-.46-1.78-1.34-1.78a1.23,1.23,0,0,0-1.18,1,1.29,1.29,0,0,0,0,.35Z"/><path class="cls-4" d="M168.8,322.6c0,.83,0,1.51,0,2h-1.72l-.09-.9h0a2.25,2.25,0,0,1-2,1c-1.28,0-2.23-.8-2.23-2.77v-3.73h2v3.42c0,.93.3,1.48,1,1.48a1.05,1.05,0,0,0,1-.68,1,1,0,0,0,.07-.43v-3.79h2Z"/><path class="cls-4" d="M172.59,316.46v1.82H174v1.46h-1.42V322c0,.77.19,1.12.78,1.12a3.93,3.93,0,0,0,.59-.05v1.49a3.71,3.71,0,0,1-1.28.17,2.06,2.06,0,0,1-1.49-.55,2.62,2.62,0,0,1-.54-1.88v-2.6h-.85v-1.46h.85v-1.37Z"/><path class="cls-4" d="M176.61,322.09c.07.82.87,1.21,1.8,1.21a5.55,5.55,0,0,0,1.75-.26l.26,1.34a6.26,6.26,0,0,1-2.3.39,3,3,0,0,1-3.39-3.24,3.18,3.18,0,0,1,3.21-3.39c2.05,0,2.83,1.6,2.83,3.17a5.58,5.58,0,0,1-.06.78Zm2.33-1.35a1.15,1.15,0,0,0-1.12-1.29,1.3,1.3,0,0,0-1.22,1.29Z"/><path class="cls-4" d="M182,320.38c0-.94,0-1.55,0-2.1h1.71l.06,1.17h.05a1.88,1.88,0,0,1,1.72-1.31,1.71,1.71,0,0,1,.41,0V320a2.42,2.42,0,0,0-.53-.06,1.27,1.27,0,0,0-1.35,1,2.09,2.09,0,0,0,0,.45v3.22h-2Z"/><path class="cls-4" d="M191.17,324.64l-2.81-8.76h2.17l1.07,3.7c.3,1,.57,2.05.78,3.14h0c.22-1.06.49-2.1.79-3.1l1.12-3.74h2.11l-2.95,8.76Z"/><path class="cls-4" d="M199,316.52a1,1,0,0,1-1.07,1,1,1,0,1,1,0-2A1,1,0,0,1,199,316.52Zm-2,8.12v-6.36h2v6.36Z"/><path class="cls-4" d="M200.5,322.91a3.91,3.91,0,0,0,1.71.48c.6,0,.84-.21.84-.53s-.19-.48-.93-.73c-1.32-.44-1.82-1.16-1.81-1.91,0-1.18,1-2.08,2.59-2.08a4.33,4.33,0,0,1,1.79.36l-.35,1.37a3.08,3.08,0,0,0-1.38-.36c-.48,0-.75.19-.75.52s.25.45,1,.72c1.2.42,1.71,1,1.72,2,0,1.18-.93,2-2.75,2a4.53,4.53,0,0,1-2.06-.44Z"/><path class="cls-4" d="M208.2,316.52a1,1,0,0,1-1.07,1,1,1,0,1,1,0-2A1,1,0,0,1,208.2,316.52Zm-2,8.12v-6.36h2v6.36Z"/><path class="cls-4" d="M216,321.39a3.18,3.18,0,0,1-3.35,3.39,3.11,3.11,0,0,1-3.29-3.27,3.17,3.17,0,0,1,3.39-3.37A3.09,3.09,0,0,1,216,321.39Zm-4.6.07c0,1.09.45,1.91,1.3,1.91s1.26-.77,1.26-1.91c0-.95-.36-1.92-1.26-1.92S211.4,320.52,211.4,321.46Z"/><path class="cls-4" d="M217.22,320.31c0-.79,0-1.47-.05-2h1.72l.09.87h0a2.33,2.33,0,0,1,2-1c1.3,0,2.27.86,2.27,2.73v3.77h-2v-3.52c0-.82-.29-1.38-1-1.38a1.05,1.05,0,0,0-1,.74,1.2,1.2,0,0,0-.08.49v3.67h-2Z"/><path class="cls-4" d="M225.29,74.42v4.75h-1.74V74.42a20,20,0,0,1-13.17-5.67,19.33,19.33,0,0,1-5.93-13.06H199.5V54h4.94a19.36,19.36,0,0,1,5.9-13.06,20,20,0,0,1,13.16-5.7v-4.8h1.77v4.8A19.94,19.94,0,0,1,238.5,40.9a19.25,19.25,0,0,1,5.88,13h5.12v1.75h-4.65c-.38,0-.5.11-.53.5a18.68,18.68,0,0,1-3.86,10.31,19.74,19.74,0,0,1-14.22,7.84ZM223.5,37c-10.43.5-17.17,9.26-17.17,16.94h2.41V50.78l7.11,4-7.17,4.08V55.71h-2.45a17.52,17.52,0,0,0,5.86,12.23,18.05,18.05,0,0,0,11.41,4.71V70.1h-3.2l4.11-7,4.14,7h-3.22v2.5A18.08,18.08,0,0,0,237.67,67a17.3,17.3,0,0,0,4.91-11.31h-2.5v3.13L233,54.78l7.15-4.05v3.16h2.35c-.07-8.5-7.71-16.7-17.17-16.91v2.5h3.17l-4.11,7-4.11-7h3.22Z"/><path class="cls-4" d="M224.38,58.32a3.61,3.61,0,1,1,.07,0Zm.06-1.7a1.86,1.86,0,0,0,1.84-1.84A1.88,1.88,0,0,0,224.41,53a1.83,1.83,0,0,0-1.83,1.82h0a1.82,1.82,0,0,0,1.82,1.81h0Z"/><path class="cls-4" d="M282.38,209.56v-24a4.15,4.15,0,0,1-2.2-1.64c-.1-.16-.46-.21-.71-.21h-8.69a10.93,10.93,0,0,1-6.37-1.84,10.28,10.28,0,0,1-3.89-11.63,8.27,8.27,0,0,1,6.5-5.62l.53-.09.15-.05c.21-.75.43-1.46.57-2.2a1,1,0,0,0-.09-.67,3.54,3.54,0,0,1,5.08-4.7,1.66,1.66,0,0,0,.79.14,3.14,3.14,0,0,0,2.65-1.62,7,7,0,0,1,4.56-2.72l.32-.14H284a19.18,19.18,0,0,1,2.66.86,8.3,8.3,0,0,1,5,7.8v.87a.25.25,0,0,0,0,.11c2-.57,3.85-.43,5.34,1.14a5.1,5.1,0,0,1,1,5.42,6.61,6.61,0,0,1,4.8,6.21h4v10.19h-1.71v-8.38h-21c0,.57,0,1.07,0,1.6a.7.7,0,0,0,.38.43,3.55,3.55,0,0,1,0,6.57.83.83,0,0,0-.4.62v21.33a3,3,0,0,0,.05.43h21v-12h-3.15l4.05-7,4,7h-3.14v13.82Zm0-34.56H301a4.59,4.59,0,0,0-4-4.62c-1.26-.15-1.49-.62-.83-1.71a3.34,3.34,0,0,0-1-4.62L295,164a3.49,3.49,0,0,0-4.08.88,1,1,0,0,1-1.3.25.91.91,0,0,1-.23-1.26,6.74,6.74,0,0,0,.52-3.26,7,7,0,0,0-5.59-6.11,6.27,6.27,0,0,0-7.06,3.33,1.25,1.25,0,0,1-1.14.73,12.09,12.09,0,0,0-1.43.17c.69,2.52-1.22,5.39-4.82,4.44a17.17,17.17,0,0,0-.28,1.77c-.08,1.07-.25,1.21-1.33,1.32a6.53,6.53,0,0,0-5.76,3.93c-2.28,5.13,1.32,11.34,6.93,11.68,3.38.21,6.77.06,10.16.07,0,0,.08,0,.15-.07a3.59,3.59,0,0,1,2.39-3.08c.15-.06.27-.38.27-.57,0-1,0-2.05,0-3.18Zm.86,8.87a1.81,1.81,0,0,0,1.76-1.81,1.86,1.86,0,0,0-1.77-1.75,1.78,1.78,0,1,0,0,3.56Zm-10.21-24a1.76,1.76,0,0,0-3.51-.05,1.81,1.81,0,0,0,1.74,1.83A1.78,1.78,0,0,0,273,159.83Z"/><path class="cls-4" d="M300.72,181.63v1.66H288.46v-1.66Z"/><path class="cls-4" d="M288.42,186.91v-1.67h12.29v1.67Z"/><path class="cls-4" d="M288.42,190.52v-1.66h12.29v1.66Z"/><path class="cls-4" d="M288.42,194.13v-1.67h12.29v1.71Z"/><path class="cls-4" d="M288.42,197.7v-1.63h12.3v1.63Z"/><path class="cls-4" d="M288.42,201.31v-1.63h12.29v1.63Z"/><path class="cls-4" d="M300.72,203.29v1.62H288.45v-1.62Z"/><path class="cls-4" d="M165,265.81a3.61,3.61,0,0,1-4.16,1.42,3.48,3.48,0,0,1-2.43-3.13,3.39,3.39,0,0,1,2.17-3.37.73.73,0,0,0,.54-.83q0-4.65,0-9.3a.64.64,0,0,0-.47-.7,3.42,3.42,0,0,1-2.23-3.59,3.59,3.59,0,0,1,6.82-1,.76.76,0,0,0,.83.55h7.65c.37,0,.56-.07.68-.5a3.58,3.58,0,0,1,6.85.18.68.68,0,0,0,.65.6,16.24,16.24,0,0,1,8.83,4.29,14.89,14.89,0,0,1,4.18,8.86,19.46,19.46,0,0,0,2,6.49c.62,1.18,1.23,2.37,1.83,3.55a2,2,0,0,1-1.84,3h-1.31c-.43,0-.54.15-.54.56,0,1.87,0,3.73,0,5.6a4.23,4.23,0,0,1-4.5,4.45h-3c-.42,0-.57.11-.56.55v3.93a2.63,2.63,0,0,1-2.51,2.74h-.05c-1.08.06-2.17,0-3.25,0a.55.55,0,0,0-.63.41,3.59,3.59,0,0,1-4.66,2,3.64,3.64,0,0,1-2-2c-.13-.33-.3-.46-.62-.42h-.17a1.58,1.58,0,0,0-1.89,1,3.36,3.36,0,0,1-3.93,1.58,3.54,3.54,0,0,1-2.6-3.07,3.44,3.44,0,0,1,2.26-3.53.58.58,0,0,0,.44-.66V267.82a.65.65,0,0,0-.44-.67A23.63,23.63,0,0,1,165,265.81ZM169.14,286a3,3,0,0,1,2.05,1.47,1.6,1.6,0,0,0,2,1h.17a.54.54,0,0,0,.63-.41,3.42,3.42,0,0,1,3.27-2.15,3.38,3.38,0,0,1,3.32,2.16.59.59,0,0,0,.64.41h2.85c1,0,1.24-.34,1.24-1.24v-4a1.87,1.87,0,0,1,1.73-2h3.47a2.57,2.57,0,0,0,2.79-2.81c0-1.84,0-3.69,0-5.53a2,2,0,0,1,2.22-2.27h1.3c.44,0,.54-.17.34-.55-.35-.68-.67-1.37-1-2a25.4,25.4,0,0,1-3-9c-1.06-7.1-6-10.3-11.54-11.3a.51.51,0,0,0-.64.29,3.08,3.08,0,0,1-1.78,1.5.56.56,0,0,0-.42.66v5.25a3.24,3.24,0,0,0,0,.58h3.14c-1.39,2.35-2.72,4.59-4.08,6.91l-4.09-6.93H177v-6c0-.12-.18-.31-.32-.36a3.65,3.65,0,0,1-2-1.82.65.65,0,0,0-.45-.3q-4.14,0-8.28,0a.66.66,0,0,0-.47.34,3.74,3.74,0,0,1-2.18,2.07.62.62,0,0,0-.32.42v9.82c0,.12.08.33.17.36a3.86,3.86,0,0,1,2.09,1.63,3.85,3.85,0,0,1,2-1.62.64.64,0,0,0,.23-.5c0-1,0-2.1,0-3.14a.89.89,0,0,0-.64-1,3.39,3.39,0,0,1-2-3.77,3.6,3.6,0,0,1,7-.23,3.44,3.44,0,0,1-1.72,3.92c-.27.15-.55.25-.84.38v4.34a3.43,3.43,0,0,1,2.38,2c.16.43.4.5.8.5h10.84a.74.74,0,0,0,.82-.56,3.56,3.56,0,0,1,4-2,3.49,3.49,0,0,1,.12,6.81,3.57,3.57,0,0,1-4.13-2c-.13-.3-.23-.5-.63-.5H172.17a.55.55,0,0,0-.61.43,3.24,3.24,0,0,1-2,1.93c-.39.14-.46.33-.46.7v7.65Zm20-22.09a1.83,1.83,0,1,0-1.81,1.85A1.83,1.83,0,0,0,189.11,263.9ZM162,248.49a1.81,1.81,0,1,0-1.83-1.81A1.85,1.85,0,0,0,162,248.49Zm15.32,42.69a1.78,1.78,0,1,0-1.86-1.79,1.81,1.81,0,0,0,1.83,1.79Zm-9-36.62a1.78,1.78,0,1,0-1.82-1.74A1.78,1.78,0,0,0,168.29,254.56ZM162,265.72a1.82,1.82,0,0,0,1.86-1.76,1.85,1.85,0,1,0-1.86,1.76Zm8.12-1.76a1.83,1.83,0,0,0-1.79-1.84,1.87,1.87,0,0,0-1.9,1.81,1.84,1.84,0,0,0,1.84,1.79A1.81,1.81,0,0,0,170.09,264Zm-1.83,23.65a1.79,1.79,0,1,0,0,3.57h0a1.79,1.79,0,0,0,0-3.57Zm9.57-39.44a1.62,1.62,0,1,0-.08,0Z"/><path class="cls-4" d="M87.56,184.92l-5.2-.06h-.85v-1.94H83.9l3.66-.06Z"/><path class="cls-4" d="M37.56,183l5.28-.06h.78v1.94h-2.4l-3.66-.07Z"/><path class="cls-4" d="M53.45,163.86V170H51.53v-5.41a5.5,5.5,0,0,1,.11-.69Z"/><path class="cls-4" d="M58.49,163.86V170H56.57v-5.41a5.5,5.5,0,0,1,.11-.69Z"/><path class="cls-4" d="M63.53,163.86V170H61.61v-5.41a5.5,5.5,0,0,1,.11-.69Z"/><path class="cls-4" d="M68.57,163.86V170H66.65v-5.41a5.5,5.5,0,0,1,.11-.69Z"/><path class="cls-4" d="M73.61,163.86V170H71.69v-5.41a4.16,4.16,0,0,1,.12-.69Z"/><path class="cls-4" d="M87.56,179.88l-4.11-.06H81.54v-1.88h6Z"/><path class="cls-4" d="M87.56,189.83h-6V188h2.24l3.79-.06Z"/><path class="cls-4" d="M87.56,194.87h-6V193h2.24c1.26,0,2.53,0,3.79-.06Z"/><path class="cls-4" d="M87.56,199.91h-6V198h2.24c1.26,0,2.53,0,3.79-.06Z"/><path class="cls-4" d="M37.56,177.94h6v1.88H41.75l-4.19-.07Z"/><path class="cls-4" d="M37.56,188c1.37,0,2.75-.05,4.12-.06H43.6v1.87h-6Z"/><path class="cls-4" d="M37.56,193.06c1.37,0,2.75-.05,4.12-.06H43.6v1.87h-6Z"/><path class="cls-4" d="M37.56,198.13c1.37,0,2.75,0,4.12-.07H43.6v1.88h-6Z"/><path class="cls-4" d="M46.46,205V177.47a4.13,4.13,0,0,1-2.31-1.7,3.85,3.85,0,0,1,6.47-4.16,5.12,5.12,0,0,1,.3.57.8.8,0,0,0,.89.59H78.73V205ZM76.84,174.7a2.45,2.45,0,0,0-.38,0H51.59a.8.8,0,0,0-.58.41,3.75,3.75,0,0,1-2.11,2.15.74.74,0,0,0-.56.84v24.36c0,.23,0,.45,0,.67H76.84Zm-27.5-1a1.93,1.93,0,0,0-1.93-1.93,2,2,0,1,0,1.9,2v-.08Z"/><path class="cls-4" d="M53.45,207.87v6H51.58v-6Z"/><path class="cls-4" d="M56.62,207.84h1.83v6H56.62Z"/><path class="cls-4" d="M63.49,213.85H61.65v-6h1.84Z"/><path class="cls-4" d="M66.69,207.84h1.84v6H66.69Z"/><path class="cls-4" d="M71.73,207.85h1.84v6H71.73Z"/><path class="cls-4" d="M53.74,197.81V180H70.52v1.88H55.67v13.94H69.56v-3.13H66.14l4.42-7.66c1.5,2.57,2.92,5.06,4.42,7.64H71.53v5.1Z"/><path class="cls-4" d="M153.55,52a4.71,4.71,0,0,1-4,3.37c-3,.65-6,1.43-8.94,2.16a5.93,5.93,0,0,1-4.26-.7c-.6-.32-1.15-.68-1.72-1a3.09,3.09,0,0,0-3.4,0,9.93,9.93,0,0,1-4,1.8,5.67,5.67,0,0,1-1.84-.06c-3.21-.74-6.41-1.55-9.6-2.31A4.11,4.11,0,0,1,112.5,52a1,1,0,0,0-.11-.17V39.49a.9.9,0,0,0,.12-.24,4.14,4.14,0,0,1,4.09-3.2h.93c0-.22.06-.32.07-.44a15.2,15.2,0,0,1,1.57-6.05.93.93,0,0,0-.1-.67,4.1,4.1,0,0,1,6.1-5.22,1.12,1.12,0,0,0,.84.14,21.48,21.48,0,0,1,12.55-.42,12.12,12.12,0,0,1,9.25,8.81,38.74,38.74,0,0,1,.72,3.85h.71a4.48,4.48,0,0,1,2.84.94,5,5,0,0,1,1.48,2.37ZM133,38.11H116.73A2.07,2.07,0,0,0,114.44,40a2,2,0,0,0,0,.42V51a2.09,2.09,0,0,0,1.76,2.23c3.09.75,6.19,1.46,9.27,2.25A4.13,4.13,0,0,0,128.6,55c.63-.34,1.2-.75,1.85-1.09a5.06,5.06,0,0,1,5.2.07c.48.27,1,.57,1.42.85a4.54,4.54,0,0,0,3.71.57c2.91-.78,5.86-1.45,8.79-2.17a2.16,2.16,0,0,0,2-2.48V40.5a2.13,2.13,0,0,0-2.4-2.4ZM146.34,36v-.46c0-.39-.08-.78-.14-1.17-.55-3.55-2.23-6.38-5.5-8-4.42-2.17-9-2.14-13.69-.77-.48.14-.34.45-.3.76a4,4,0,0,1-3.16,4.5,15.56,15.56,0,0,1-2.73,0,12.54,12.54,0,0,0-1.2,5.1Zm-21.6-9a2.05,2.05,0,0,0-2-2.09h0a2.06,2.06,0,0,0,0,4.12,2,2,0,0,0,2.07-2,.13.13,0,0,0,0-.06Z"/><path class="cls-4" d="M123.73,66.73v5.35h-2.06V65.61a1.34,1.34,0,0,0-.49-1.13,7.45,7.45,0,0,1-2.53-6.79h1.9c0,.51.06,1,.08,1.51a4.54,4.54,0,0,0,1.57,3.36,73.34,73.34,0,0,0,6.46,5.19,7.41,7.41,0,0,0,8.56,0,64.09,64.09,0,0,0,6.3-4.95,5.19,5.19,0,0,0,1.85-4.45v-.71h2a7.32,7.32,0,0,1-1,5,8.79,8.79,0,0,1-1.41,1.7,1.86,1.86,0,0,0-.63,1.57c0,2.58,0,5.17,0,7.75v.84H148l-4.68,8.14-4.68-8.11h3.66V66.69l-1.92,1.45a12.41,12.41,0,0,1-5.3,2.71,10.07,10.07,0,0,1-7.68-1.47C126.16,68.59,125,67.65,123.73,66.73Z"/><path class="cls-4" d="M115.57,49.43V40.2h1.92v9.23Z"/><path class="cls-4" d="M150.44,49.44h-1.95V40.21h1.95Z"/><path class="cls-4" d="M129.91,41.13v-1.9H136v1.9Z"/></svg>